<svg xmlns="http://www.w3.org/2000/svg" xmlns:xlink="http://www.w3.org/1999/xlink" width="2000" zoomAndPan="magnify" viewBox="340 340 820 820" height="2000" preserveAspectRatio="xMidYMid meet" version="1.0"><defs><clipPath id="e909db233a"><path d="M 370.308594 370.308594 L 1129.691406 370.308594 L 1129.691406 1129.691406 L 370.308594 1129.691406 Z M 370.308594 370.308594 " clip-rule="nonzero"/></clipPath><clipPath id="62dd4fd9b4"><path d="M 437.808594 370.308594 L 1062.191406 370.308594 C 1099.472656 370.308594 1129.691406 400.527344 1129.691406 437.808594 L 1129.691406 1062.191406 C 1129.691406 1099.472656 1099.472656 1129.691406 1062.191406 1129.691406 L 437.808594 1129.691406 C 400.527344 1129.691406 370.308594 1099.472656 370.308594 1062.191406 L 370.308594 437.808594 C 370.308594 400.527344 400.527344 370.308594 437.808594 370.308594 Z M 437.808594 370.308594 " clip-rule="nonzero"/></clipPath><clipPath id="3ced4b4aa3"><path d="M 0.308594 0.308594 L 759.691406 0.308594 L 759.691406 759.691406 L 0.308594 759.691406 Z M 0.308594 0.308594 " clip-rule="nonzero"/></clipPath><clipPath id="83646fca8e"><path d="M 67.808594 0.308594 L 692.191406 0.308594 C 729.472656 0.308594 759.691406 30.527344 759.691406 67.808594 L 759.691406 692.191406 C 759.691406 729.472656 729.472656 759.691406 692.191406 759.691406 L 67.808594 759.691406 C 30.527344 759.691406 0.308594 729.472656 0.308594 692.191406 L 0.308594 67.808594 C 0.308594 30.527344 30.527344 0.308594 67.808594 0.308594 Z M 67.808594 0.308594 " clip-rule="nonzero"/></clipPath><clipPath id="6571cd13a5"><rect x="0" width="760" y="0" height="760"/></clipPath><clipPath id="7a718a378f"><path d="M 910.152344 910.390625 L 1016.859375 910.390625 L 1016.859375 1017.097656 L 910.152344 1017.097656 Z M 910.152344 910.390625 " clip-rule="nonzero"/></clipPath><clipPath id="026206114d"><path d="M 917.652344 910.390625 L 1009.359375 910.390625 C 1013.5 910.390625 1016.859375 913.746094 1016.859375 917.890625 L 1016.859375 1009.597656 C 1016.859375 1013.738281 1013.5 1017.097656 1009.359375 1017.097656 L 917.652344 1017.097656 C 913.511719 1017.097656 910.152344 1013.738281 910.152344 1009.597656 L 910.152344 917.890625 C 910.152344 913.746094 913.511719 910.390625 917.652344 910.390625 Z M 917.652344 910.390625 " clip-rule="nonzero"/></clipPath><clipPath id="5aac393b5e"><path d="M 0.152344 0.390625 L 106.859375 0.390625 L 106.859375 107.097656 L 0.152344 107.097656 Z M 0.152344 0.390625 " clip-rule="nonzero"/></clipPath><clipPath id="267acdf059"><path d="M 7.652344 0.390625 L 99.359375 0.390625 C 103.5 0.390625 106.859375 3.746094 106.859375 7.890625 L 106.859375 99.597656 C 106.859375 103.738281 103.5 107.097656 99.359375 107.097656 L 7.652344 107.097656 C 3.511719 107.097656 0.152344 103.738281 0.152344 99.597656 L 0.152344 7.890625 C 0.152344 3.746094 3.511719 0.390625 7.652344 0.390625 Z M 7.652344 0.390625 " clip-rule="nonzero"/></clipPath><clipPath id="e695ac7dc8"><rect x="0" width="107" y="0" height="108"/></clipPath></defs><g clip-path="url(#e909db233a)"><g clip-path="url(#62dd4fd9b4)"><g transform="matrix(1, 0, 0, 1, 370, 370)"><g clip-path="url(#6571cd13a5)"><g clip-path="url(#3ced4b4aa3)"><g clip-path="url(#83646fca8e)"><path fill="#020300" d="M 0.308594 0.308594 L 759.691406 0.308594 L 759.691406 759.691406 L 0.308594 759.691406 Z M 0.308594 0.308594 " fill-opacity="1" fill-rule="nonzero"/></g></g></g></g></g></g><g clip-path="url(#7a718a378f)"><g clip-path="url(#026206114d)"><g transform="matrix(1, 0, 0, 1, 910, 910)"><g clip-path="url(#e695ac7dc8)"><g clip-path="url(#5aac393b5e)"><g clip-path="url(#267acdf059)"><path fill="#d97757" d="M 0.152344 0.390625 L 106.859375 0.390625 L 106.859375 107.097656 L 0.152344 107.097656 Z M 0.152344 0.390625 " fill-opacity="1" fill-rule="nonzero"/></g></g></g></g></g></g><path stroke-linecap="round" transform="matrix(0.75, 0, 0, 0.75, 482.857432, 482.903746)" fill="none" stroke-linejoin="miter" d="M 18.502593 18.498131 L 693.502651 18.498131 " stroke="#ffffff" stroke-width="37" stroke-opacity="1" stroke-miterlimit="4"/><path stroke-linecap="round" transform="matrix(0, -0.75, 0.75, 0, 482.480056, 1017.093636)" fill="none" stroke-linejoin="miter" d="M 18.49985 18.500552 L 693.755117 18.500552 " stroke="#ffffff" stroke-width="37" stroke-opacity="1" stroke-miterlimit="4"/></svg>